<?xml version="1.0" standalone="no"?>
<!DOCTYPE svg PUBLIC "-//W3C//DTD SVG 20010904//EN"
 "http://www.w3.org/TR/2001/REC-SVG-20010904/DTD/svg10.dtd">
<svg version="1.0" xmlns="http://www.w3.org/2000/svg"
 width="400.000000pt" height="400.000000pt" viewBox="0 0 400.000000 400.000000"
 preserveAspectRatio="xMidYMid meet">
<metadata>
Created by potrace 1.14, written by Peter Selinger 2001-2017
</metadata>
<g transform="translate(0.000000,400.000000) scale(0.100000,-0.100000)"
fill="#000000" stroke="none">
<path d="M0 2000 l0 -2000 2000 0 2000 0 0 2000 0 2000 -2000 0 -2000 0 0
-2000z m2460 1284 c225 -113 410 -207 410 -210 0 -2 -3 -3 -7 -2 -13 5 -88
-75 -85 -89 3 -16 -3 -13 -429 198 l-315 157 -682 -341 -682 -342 0 -670 1
-670 239 -118 c132 -65 240 -120 240 -123 0 -3 -9 0 -20 6 -16 9 -24 7 -38 -6
-9 -10 -17 -20 -17 -24 0 -3 -10 -16 -22 -29 -12 -13 -20 -28 -17 -33 3 -5
-25 6 -63 25 -37 19 -139 69 -225 112 -164 81 -193 101 -209 142 -5 14 -9 317
-9 738 l0 713 26 31 c19 23 203 119 727 380 738 367 722 359 749 360 10 1 202
-92 428 -205z m557 -816 l23 -21 0 -404 0 -403 -1008 0 -1009 0 -5 392 c-4
255 -2 399 4 414 6 12 20 27 32 32 14 7 341 11 980 11 l960 1 23 -22z"/>
<path d="M2212 2312 c-9 -7 -12 -64 -10 -253 l3 -244 68 -3 c39 -2 74 2 82 8
17 14 9 481 -9 492 -15 10 -118 10 -134 0z"/>
<path d="M1187 2203 c-12 -192 -9 -369 7 -382 9 -7 41 -11 83 -9 l68 3 3 248
2 247 -78 0 -79 0 -6 -107z"/>
<path d="M1527 2304 c-4 -4 -7 -112 -7 -239 0 -188 3 -235 14 -244 9 -7 41
-11 83 -9 l68 3 0 245 0 245 -75 3 c-42 1 -79 0 -83 -4z"/>
<path d="M1865 2298 c-3 -8 -4 -119 -3 -248 l3 -235 80 0 80 0 0 245 0 245
-78 3 c-57 2 -79 -1 -82 -10z"/>
</g>
</svg>
