<?xml version="1.0" standalone="no"?>
<!DOCTYPE svg PUBLIC "-//W3C//DTD SVG 20010904//EN"
 "http://www.w3.org/TR/2001/REC-SVG-20010904/DTD/svg10.dtd">
<svg version="1.0" xmlns="http://www.w3.org/2000/svg"
 width="512.000000pt" height="512.000000pt" viewBox="0 0 512.000000 512.000000"
 preserveAspectRatio="xMidYMid meet">
<metadata>
Created by potrace 1.14, written by Peter Selinger 2001-2017
</metadata>
<g transform="translate(0.000000,512.000000) scale(0.100000,-0.100000)"
fill="#000000" stroke="none">
<path d="M602 5060 c-27 -55 -32 -76 -32 -136 0 -84 26 -145 93 -214 39 -41
43 -48 34 -74 -24 -72 59 -175 234 -290 187 -124 218 -148 295 -229 81 -87
137 -185 156 -279 10 -50 10 -59 -5 -76 -27 -29 -31 -75 -12 -117 19 -39 23
-42 183 -160 57 -42 142 -113 189 -158 82 -78 89 -89 153 -222 37 -77 80 -170
95 -207 16 -37 31 -66 33 -63 5 5 -81 201 -150 340 -33 66 -56 116 -50 110 5
-5 75 -92 156 -192 81 -101 149 -183 150 -183 2 0 -25 79 -60 176 -35 97 -64
179 -64 183 0 17 60 -88 111 -193 68 -144 74 -141 73 39 0 91 -7 148 -26 235
-14 63 -28 133 -32 155 l-5 40 13 -40 c7 -22 41 -126 75 -231 59 -179 114
-303 138 -311 7 -3 14 27 18 82 8 96 -6 169 -71 355 -18 52 -31 96 -30 98 2 1
30 -54 62 -123 32 -69 63 -125 68 -125 5 0 6 24 3 53 -4 32 -3 47 3 38 7 -12
10 -10 14 10 3 13 17 71 32 129 15 58 29 122 31 142 3 21 9 36 13 33 5 -3 18
15 28 39 22 49 72 126 72 111 0 -6 4 -4 9 3 4 7 17 14 29 15 11 0 18 5 16 9
-3 4 2 8 10 8 10 0 18 18 26 58 22 113 70 296 80 306 7 7 10 -49 10 -180 0
-178 1 -192 20 -209 11 -10 20 -24 20 -32 0 -18 7 -17 45 13 31 23 63 26 50 3
-4 -5 -1 -9 4 -9 6 0 10 -3 9 -7 -1 -5 5 -28 12 -53 18 -61 17 -57 34 -125 8
-33 12 -62 9 -65 -3 -3 -8 0 -10 6 -2 6 -9 19 -16 28 -10 14 -12 13 -11 -11 0
-16 5 -39 11 -53 6 -14 14 -40 18 -59 5 -24 10 -30 16 -20 5 8 6 -8 2 -38 -3
-29 -3 -53 0 -53 3 0 31 48 61 108 76 147 93 166 46 48 -22 -54 -52 -139 -66
-188 -25 -86 -25 -92 -12 -166 l14 -77 28 48 c41 70 82 170 152 372 35 99 63
175 63 170 1 -6 -15 -73 -35 -150 -47 -179 -66 -294 -61 -372 5 -105 15 -100
72 37 67 160 115 204 255 236 55 12 81 24 112 52 50 45 85 105 94 160 5 32 13
46 35 59 28 17 44 41 34 51 -3 3 -11 0 -17 -6 -7 -7 -22 -12 -35 -12 -13 0
-146 37 -296 82 -199 60 -279 89 -297 107 -14 13 -19 20 -12 17 7 -4 4 9 -8
29 -12 21 -15 34 -8 30 7 -4 4 1 -6 9 -15 12 -16 16 -5 16 11 0 11 2 1 8 -10
7 -6 24 18 77 39 86 45 137 27 197 l-15 47 29 6 c37 8 77 56 84 103 6 39 11
49 57 122 15 25 35 74 44 110 21 86 8 140 -46 192 -38 35 -131 78 -170 78 -10
0 -21 3 -23 8 -3 4 68 7 156 7 148 0 166 2 214 24 121 54 195 51 -1375 51
l-1451 0 -3 48 -3 47 -33 -65z m957 -690 c77 -120 171 -280 171 -292 0 -4 -18
-8 -40 -8 -46 0 -31 -26 -140 243 -38 92 -67 167 -65 167 2 0 35 -49 74 -110z
m1430 -910 c0 -10 -3 -8 -9 5 -12 27 -12 43 0 25 5 -8 9 -22 9 -30z"/>
<path d="M4412 4780 c-145 -77 -194 -86 -269 -55 -20 8 -37 14 -38 13 -1 -2
-16 -33 -34 -70 -17 -37 -55 -92 -84 -122 -48 -51 -56 -56 -96 -56 -49 0 -122
33 -191 87 -39 30 -37 27 13 -21 80 -77 150 -116 208 -116 44 0 50 4 115 68
38 37 78 84 89 106 18 34 28 41 90 60 69 23 233 102 310 150 74 47 21 26 -113
-44z"/>
<path d="M3359 4562 c-2 -14 -5 -30 -9 -37 -1 -3 -3 -8 -5 -12 -1 -5 -5 -15
-8 -23 -20 -46 -146 -425 -143 -428 7 -6 106 161 158 267 72 150 74 156 38
204 -17 23 -31 36 -31 29z"/>
<path d="M3855 4044 c-27 -8 -89 -16 -136 -17 -83 -2 -87 -3 -102 -30 -34 -59
-142 -73 -282 -37 -43 11 -81 20 -83 20 -3 0 7 -14 24 -31 74 -79 201 -101
304 -53 30 14 62 32 71 40 9 8 43 16 77 19 66 4 142 38 183 81 26 28 18 29
-56 8z"/>
<path d="M970 3643 c11 -15 51 -47 88 -71 l67 -44 -70 71 c-38 39 -78 71 -88
71 -17 0 -17 -2 3 -27z"/>
<path d="M3865 3528 c-60 -32 -166 -101 -162 -104 4 -5 307 103 316 112 10 9
-136 2 -154 -8z"/>
<path d="M1214 3275 c38 -25 75 -45 83 -45 20 0 15 26 -11 57 -22 26 -32 30
-83 31 l-58 2 69 -45z"/>
<path d="M4581 3141 c24 -17 58 -40 74 -52 18 -13 10 -2 -20 29 -33 35 -57 52
-74 52 -22 0 -20 -3 20 -29z"/>
<path d="M2739 2803 c-28 -89 -28 -115 -12 -503 11 -258 26 -372 83 -615 24
-103 24 -95 2 -95 -14 0 -23 26 -51 143 -34 139 -35 141 -42 97 -4 -25 -8 -89
-8 -142 -1 -78 -4 -98 -15 -98 -17 0 -20 15 -42 180 -10 83 -15 194 -14 330 0
113 -2 297 -6 410 l-7 205 -24 -133 c-33 -188 -89 -447 -119 -544 -42 -139
-45 -161 -42 -304 l3 -139 -47 -1 -47 -1 -6 42 c-7 46 2 106 50 320 19 83 39
191 46 240 11 82 10 98 -10 182 -12 51 -28 156 -37 235 -8 79 -18 168 -22 198
l-7 55 -41 3 c-59 4 -99 -30 -96 -84 1 -22 3 -97 4 -169 2 -71 7 -168 12 -215
8 -82 7 -88 -26 -176 -63 -168 -201 -376 -303 -457 -29 -23 -68 -66 -87 -94
l-33 -53 -72 0 c-58 0 -73 3 -73 15 0 18 -5 19 -33 3 -20 -12 -87 -19 -87 -10
0 2 18 24 39 50 50 60 319 597 359 717 29 88 122 406 122 419 0 18 -26 -3 -36
-29 -80 -200 -170 -409 -192 -445 -20 -32 -35 -46 -55 -48 l-26 -3 31 68 c150
330 204 480 118 328 -14 -24 -125 -218 -247 -430 l-223 -385 -243 -298 c-134
-163 -334 -411 -445 -549 -201 -251 -204 -254 -467 -490 l-264 -238 -1 -147 0
-148 2560 0 2560 0 0 148 0 147 -263 251 -262 251 -169 274 c-101 163 -258
397 -388 577 -209 290 -225 315 -380 607 -89 168 -163 303 -165 301 -4 -4 179
-431 223 -518 20 -40 72 -125 115 -190 63 -93 75 -118 61 -118 -21 0 -119 125
-157 201 -14 26 -68 145 -121 265 -145 329 -270 569 -281 539 -7 -21 98 -327
165 -480 94 -217 122 -301 122 -372 0 -36 8 -74 20 -102 11 -24 20 -45 20 -47
0 -2 -22 -4 -49 -4 -52 0 -61 8 -61 58 0 33 -37 115 -81 180 -18 26 -96 110
-175 187 -146 144 -184 197 -184 258 0 46 -56 154 -127 248 -161 211 -167 218
-194 218 -24 1 -28 -5 -50 -76z"/>
<path d="M2117 2702 c-9 -24 -32 -65 -51 -92 -34 -49 -43 -80 -91 -304 -11
-50 -35 -115 -67 -175 -39 -76 -128 -289 -128 -307 0 -23 131 92 153 134 8 15
39 66 70 115 106 168 149 311 148 502 0 61 -4 123 -9 140 l-8 29 -17 -42z"/>
<path d="M3070 2715 c0 -4 24 -62 54 -129 30 -67 62 -148 71 -181 24 -88 36
-116 61 -151 24 -33 174 -140 174 -125 0 23 -66 194 -101 262 -51 98 -259 359
-259 324z"/>
</g>
</svg>
